<?xml version="1.0" encoding="utf-8"?>
<!-- Generator: Adobe Illustrator 24.0.2, SVG Export Plug-In . SVG Version: 6.00 Build 0)  -->
<svg version="1.1" id="Layer_1" xmlns="http://www.w3.org/2000/svg" xmlns:xlink="http://www.w3.org/1999/xlink" x="0px" y="0px"
	 viewBox="0 0 512 512" style="enable-background:new 0 0 512 512;" xml:space="preserve">
<style type="text/css">
	.st0{fill:#0496A7;}
</style>
<g>
	<ellipse class="st0" cx="159.77" cy="394.02" rx="38.71" ry="39.43"/>
	<path class="st0" d="M352.77,78.62c-21.38,0-38.71,17.65-38.71,39.43v6.47v12.56v9.13v35.1c0,32.02-26.05,58.06-58.06,58.06
		s-58.06-26.05-58.06-58.06v-39.45v-4.78v-4.15v-9.13v-5.75c0-21.77-17.33-39.43-38.71-39.43s-38.71,17.65-38.71,39.43v5.75v9.13
		v4.15v4.78v39.45c0,74.7,60.78,135.48,135.48,135.48c20.62,0,40.18-4.64,57.7-12.92c-3.21,29-27.86,51.63-57.7,51.63
		c-21.38,0-38.71,17.33-38.71,38.71s17.33,38.71,38.71,38.71c74.7,0,135.48-60.78,135.48-135.48V181.32v-35.1v-9.13v-12.56v-6.47
		C391.48,96.27,374.15,78.62,352.77,78.62z"/>
</g>
</svg>
